<svg fill="#FFFFFF" xmlns:dc="http://purl.org/dc/elements/1.1/" xmlns:cc="http://creativecommons.org/ns#" xmlns:rdf="http://www.w3.org/1999/02/22-rdf-syntax-ns#" xmlns:svg="http://www.w3.org/2000/svg" xmlns="http://www.w3.org/2000/svg" xmlns:sodipodi="http://sodipodi.sourceforge.net/DTD/sodipodi-0.dtd" xmlns:inkscape="http://www.inkscape.org/namespaces/inkscape" version="1.1" x="0px" y="0px" viewBox="0 0 100 100"><g transform="translate(0,-952.36218)"><path style="text-indent:0;text-transform:none;direction:ltr;block-progression:tb;baseline-shift:baseline;color:#000000;enable-background:accumulate;" d="m 45.204181,965.42457 c -2.54063,0 -5.53099,1.9 -7.5625,5 -0.74886,1.1426 -1.29025,2.3298 -1.625,3.5 -0.87006,-1.0177 -1.99002,-1.95415 -3.3125,-2.71875 -4.27816,-2.4734 -9.15005,-2.22255 -10.8125,0.59375 a 1.4014988,0.94382145 0 0 0 0.625,1.4375 1.4014988,0.94382145 0 0 0 0.0937,0.0625 l 5.53125,3.1875 c -0.40146,0.031 -0.80898,0.056 -1.21875,0.125 -4.87263,0.8233 -8.45314,4.11435 -7.9375,7.34375 a 0.94382145,1.4014988 0 0 0 1.375,0.71875 0.94382145,1.4014988 0 0 0 0.125,0 l 6.09375,-1.03125 c -0.35456,0.4249 -0.719,0.85645 -1.03125,1.34375 -2.66629,4.1606 -2.64354,9.05435 0.0937,10.84375 a 0.94382145,1.4014988 0 0 0 1.46875,-0.5625 0.94382145,1.4014988 0 0 0 0.0625,-0.0937 l 4.125,-6.4375 2.71875,-4.25 c 1.01461,2.3698 1.62327,5.51755 1.75,9.59375 0.1391,4.4739 -0.25619,10.01933 -1.15625,16.68753 -5.5208,2.8247 -9.62077,7.3728 -11.53125,12.9062 -0.0315,0.09 -0.0256,0.1867 -0.0312,0.2813 l -14.7500094,0 a 1.150115,1.150115 0 0 0 -0.125,0 1.157938,1.157938 0 1 0 0.125,2.3125 l 83.4687594,0 a 1.15625,1.15625 0 0 0 0,-2.3125 l -14.3125,0 c -0.0166,-0.2133 -0.0526,-0.4242 -0.1875,-0.5938 -0.85416,-1.4212 -1.837,-2.749 -2.90625,-4 0.007,-0.073 0.007,-0.146 0,-0.2187 -1.37843,-8.264 -2.03858,-14.8343 -1.90625,-19.84378 0.0888,-3.3599 0.52766,-5.97585 1.3125,-7.96875 l 2.21875,3.4375 3.5625,5.50003 c 0.0165,0.043 0.0374,0.084 0.0625,0.125 0.254,0.362 0.87958,0.5882 1.46875,0.5312 2.40314,-1.59218 2.39103,-5.90408 0.0312,-9.56248 -0.20504,-0.3179 -0.39879,-0.61835 -0.625,-0.90625 l 4.84375,0.8125 0.125,0 c 0.63552,0.015 1.2542,-0.30165 1.40625,-0.71875 0.44102,-2.8558 -2.74615,-5.76215 -7.03125,-6.46875 -0.20566,-0.034 -0.42147,-0.0405 -0.625,-0.0625 l 4.34375,-2.5625 c 0.0426,-0.017 0.0844,-0.0375 0.125,-0.0625 0.37833,-0.2213 0.63286,-0.8375 0.59375,-1.4375 -1.47523,-2.4819 -5.75054,-2.6983 -9.5,-0.5 -1.06104,0.6221 -1.98774,1.3724 -2.71875,2.1875 -0.30198,-0.9364 -0.74454,-1.87275 -1.34375,-2.78125 -1.79765,-2.7256 -4.4496,-4.3812 -6.6875,-4.375 -0.74597,0 -1.4586,0.1692 -2.0625,0.5625 -0.81586,0.3166 -0.86989,1.23445 -0.0937,1.59375 0.0284,0.032 0.0598,0.0637 0.0937,0.0937 l 3.40625,5.15625 c -0.20237,-0.087 -0.41422,-0.14175 -0.625,-0.21875 -4.08047,-1.4912 -8.27151,-0.55005 -9.28125,2.15625 -0.34588,0.4928 0.0993,1.1606 0.875,1.3125 0.0399,0.022 0.0817,0.0435 0.125,0.0625 l 5.4375,2 c -0.35391,0.1117 -0.70933,0.2254 -1.0625,0.375 -4.00058,1.6949 -6.4085,5.2651 -5.3125,7.9375 0.26575,0.7792 1.07609,0.9818 1.5,0.375 0.0426,-0.017 0.0844,-0.0375 0.125,-0.0625 l 6.03125,-2.53125 4.15625,-1.78125 c -2.71996,6.3127 -3.21029,13.49718 -2.9375,19.99998 -4.90821,-2.5343 -10.43321,-3.9233 -15.9375,-3.9375 -1.21458,0 -2.41905,0.055 -3.625,0.1875 0.2441,-7.5422 -0.4066,-15.81923 -3.65625,-23.03123 l 5.25,2.1875 7.03125,2.9375 a 1.4014988,0.94382149 0 0 0 0.0625,0.0312 1.4014988,0.94382149 0 0 0 1.5625,-0.375 c 1.2308,-3.0298 -1.53244,-7.0362 -6.09375,-8.9375 -0.57017,-0.2377 -1.11863,-0.44185 -1.6875,-0.59375 l 6.78125,-2.5 a 0.94382148,1.4014988 0 0 0 0.15625,-0.0625 0.94382148,1.4014988 0 0 0 0.84375,-1.3125 c -1.16072,-3.0574 -5.92682,-4.11825 -10.5625,-2.40625 -0.41454,0.1531 -0.80267,0.34555 -1.1875,0.53125 l 0.0625,-0.125 4.1875,-6.34375 a 0.94382148,1.4014988 0 0 0 0.0625,-0.125 0.94382148,1.4014988 0 0 0 -0.0937,-1.5625 c -0.6878,-0.44185 -1.49683,-0.6575 -2.3437,-0.6562 z m 7.5625,48.50003 2.3125,0 0,2.3125 -2.3125,0 0,-2.3125 z m -4.125,1.1562 2.3125,0 0,2.3125 -2.3125,0 0,-2.3125 z m 8.25,1.9063 2.3125,0 0,2.2812 -2.3125,0 0,-2.2812 z m -11.3125,13.25 -0.5625,0.4687 -0.125,1 0.40625,0.75 0.28125,0.094 11.375,0 0.5625,-0.4375 0.125,-1 -0.40625,-0.7812 -0.28125,-0.094 -11.375,0 z m 14.21875,0 -0.53125,0.4687 -0.125,1 0.40625,0.75 0.25,0.094 1.4375,0 0.5625,-0.4375 0.125,-1 -0.40625,-0.7812 -0.28125,-0.094 -1.4375,0 z m 4.28125,0 -0.5625,0.4687 -0.125,1 0.4375,0.75 0.25,0.094 11.40625,0 0.5625,-0.4375 0.125,-1 -0.40625,-0.7812 -0.28125,-0.094 -11.40625,0 z m 14.25,0 -0.5625,0.4687 -0.125,1 0.40625,0.75 0.28125,0.094 1.4375,0 0.5625,-0.4375 0.0937,-1 -0.40625,-0.7812 -0.25,-0.094 -1.4375,0 z m 4.28125,0 -0.5625,0.4687 -0.15625,1 0.4375,0.75 0.28125,0.094 3.6875,0 0.5625,-0.4375 0.125,-1 -0.40625,-0.7812 -0.28125,-0.094 -3.6875,0 z m -72.7187594,6.75 -0.90625,0.4687 -0.1875,1 0.65625,0.75 0.4375,0.094 18.2500094,0 0.90625,-0.4375 0.1875,-1 -0.65625,-0.7812 -0.4375,-0.094 -18.2500094,0 z m 22.8125094,0 -0.90625,0.4687 -0.15625,1 0.625,0.75 0.4375,0.094 2.3125,0 0.90625,-0.4375 0.15625,-1 -0.625,-0.7812 -0.4375,-0.094 -2.3125,0 z m 6.875,0 -0.90625,0.4687 -0.21875,1 0.6875,0.75 0.4375,0.094 18.25,0 0.90625,-0.4375 0.1875,-1 -0.65625,-0.7812 -0.4375,-0.094 -18.25,0 z m 22.8125,0 -0.875,0.4687 -0.21875,1 0.65625,0.75 0.4375,0.094 2.3125,0 0.90625,-0.4375 0.1875,-1 -0.65625,-0.7812 -0.4375,-0.094 -2.3125,0 z m 6.875,0 -0.90625,0.4687 -0.21875,1 0.6875,0.75 0.4375,0.094 5.90625,0 0.90625,-0.4375 0.1875,-1 -0.65625,-0.7812 -0.4375,-0.094 -5.90625,0 z" fill="#FFFFFF" fill-opacity="1" stroke="none" marker="none" visibility="visible" display="inline" overflow="visible"></path></g></svg>